PathFileType	4	(X/Y/Z)	C:/Users/rsk02/Documents/GitHub/TechForParalysis/Code/Model/Data/ABD_NL001_FP03.trc	
DataRate	CameraRate	NumFrames	NumMarkers	Units	OrigDataRate	OrigDataStartFrame	OrigNumFrames	
100.00	100.00	8	24	m	100.00	199	1589	
Frame#	Time	EpL			EpM			rs			us			aa			ai			ts			acc			gu			c7			t8			ij			px			ij_proj_c7			ij_proj_px			ij_proj_ac			ai_proj_aa_x			ai_proj_ts			ai_proj_aa_z			centelbow_humerus			centusrs			centelbow_ulna			ac			ijc			
		X1	Y1	Z1	X2	Y2	Z2	X3	Y3	Z3	X4	Y4	Z4	X5	Y5	Z5	X6	Y6	Z6	X7	Y7	Z7	X8	Y8	Z8	X9	Y9	Z9	X10	Y10	Z10	X11	Y11	Z11	X12	Y12	Z12	X13	Y13	Z13	X14	Y14	Z14	X15	Y15	Z15	X16	Y16	Z16	X17	Y17	Z17	X18	Y18	Z18	X19	Y19	Z19	X20	Y20	Z20	X21	Y21	Z21	X22	Y22	Z22	X23	Y23	Z23	X24	Y24	Z24	

199	1.980	0.15731	0.95093	-0.08714	0.12599	0.94140	-0.14069	0.23624	0.74443	-0.13153	0.20761	0.72496	-0.09646	0.14580	1.20241	-0.12147	0.07511	1.11168	-0.22543	0.09758	1.20796	-0.22457	0.16301	1.22402	-0.15367	0.16658	1.18192	-0.16161	0.11795	1.26387	-0.29500	0.08163	1.07396	-0.29405	0.20948	1.21402	-0.28488	0.24090	1.08521	-0.28810	0.11795	1.21402	-0.28488	0.20948	1.08521	-0.28488	0.20948	1.21402	-0.15367	0.14580	1.11168	-0.22543	0.07511	1.20796	-0.22543	0.07511	1.11168	-0.12147	0.14165	0.94617	-0.11392	0.22192	0.73469	-0.11399	0.14165	0.94617	-0.11391	0.16301	1.22402	-0.15360	0.20948	1.21402	-0.28480 
200	1.990	0.15728	0.95087	-0.08710	0.12600	0.94134	-0.14068	0.23624	0.74438	-0.13146	0.20758	0.72490	-0.09643	0.14592	1.20235	-0.12123	0.07564	1.11134	-0.22523	0.09796	1.20765	-0.22447	0.16318	1.22393	-0.15342	0.16683	1.18182	-0.16128	0.11798	1.26378	-0.29496	0.08178	1.07385	-0.29420	0.20953	1.21398	-0.28477	0.24104	1.08519	-0.28805	0.11798	1.21398	-0.28477	0.20953	1.08519	-0.28477	0.20953	1.21398	-0.15342	0.14592	1.11134	-0.22523	0.07564	1.20765	-0.22523	0.07564	1.11134	-0.12123	0.14164	0.94611	-0.11389	0.22192	0.73464	-0.11394	0.14164	0.94611	-0.11389	0.16318	1.22393	-0.15340	0.20953	1.21398	-0.28470 
201	2.000	0.15725	0.95080	-0.08715	0.12603	0.94132	-0.14078	0.23622	0.74434	-0.13148	0.20751	0.72484	-0.09651	0.14554	1.20225	-0.12124	0.07470	1.11173	-0.22529	0.09748	1.20793	-0.22441	0.16286	1.22380	-0.15342	0.16630	1.18168	-0.16136	0.11809	1.26378	-0.29480	0.08185	1.07386	-0.29399	0.20963	1.21397	-0.28463	0.24111	1.08517	-0.28789	0.11809	1.21397	-0.28463	0.20963	1.08517	-0.28463	0.20963	1.21397	-0.15342	0.14554	1.11173	-0.22529	0.07470	1.20793	-0.22529	0.07470	1.11173	-0.12124	0.14164	0.94606	-0.11397	0.22187	0.73459	-0.11399	0.14164	0.94606	-0.11396	0.16286	1.22380	-0.15340	0.20963	1.21397	-0.28460 
202	2.010	0.15717	0.95071	-0.08716	0.12601	0.94126	-0.14082	0.23633	0.74438	-0.13151	0.20744	0.72483	-0.09671	0.14545	1.20219	-0.12113	0.07438	1.11177	-0.22511	0.09728	1.20795	-0.22424	0.16276	1.22372	-0.15332	0.16614	1.18160	-0.16126	0.11819	1.26381	-0.29480	0.08190	1.07390	-0.29414	0.20970	1.21397	-0.28450	0.24116	1.08517	-0.28777	0.11819	1.21397	-0.28450	0.20970	1.08517	-0.28450	0.20970	1.21397	-0.15332	0.14545	1.11177	-0.22511	0.07438	1.20795	-0.22511	0.07438	1.11177	-0.12113	0.14159	0.94599	-0.11399	0.22188	0.73461	-0.11411	0.14159	0.94599	-0.11399	0.16276	1.22372	-0.15330	0.20970	1.21397	-0.28400 
203	2.020	0.15711	0.95061	-0.08714	0.12599	0.94117	-0.14083	0.23629	0.74427	-0.13145	0.20744	0.72469	-0.09664	0.14551	1.20209	-0.12094	0.07475	1.11153	-0.22501	0.09756	1.20773	-0.22416	0.16287	1.22362	-0.15312	0.16631	1.18150	-0.16102	0.11836	1.26390	-0.29461	0.08192	1.07401	-0.29399	0.20983	1.21398	-0.28432	0.24118	1.08515	-0.28762	0.11836	1.21398	-0.28432	0.20983	1.08515	-0.28432	0.20983	1.21398	-0.15312	0.14551	1.11153	-0.22501	0.07475	1.20773	-0.22501	0.07475	1.11153	-0.12094	0.14155	0.94589	-0.11399	0.22186	0.73448	-0.11404	0.14155	0.94589	-0.11398	0.16287	1.22362	-0.15310	0.20983	1.21398	-0.28430 
204	2.030	0.15706	0.95052	-0.08712	0.12600	0.94112	-0.14085	0.23627	0.74416	-0.13141	0.20739	0.72457	-0.09663	0.14566	1.20200	-0.12064	0.07529	1.11102	-0.22461	0.09786	1.20728	-0.22395	0.16302	1.22349	-0.15284	0.16657	1.18136	-0.16064	0.11841	1.26380	-0.29467	0.08207	1.07389	-0.29437	0.20987	1.21392	-0.28419	0.24130	1.08511	-0.28754	0.11841	1.21392	-0.28419	0.20987	1.08511	-0.28419	0.20987	1.21392	-0.15284	0.14566	1.11102	-0.22461	0.07529	1.20728	-0.22461	0.07529	1.11102	-0.12064	0.14153	0.94582	-0.11399	0.22183	0.73436	-0.11402	0.14153	0.94582	-0.11398	0.16302	1.22349	-0.15280	0.20987	1.21392	-0.28410 
205	2.040	0.15698	0.95042	-0.08705	0.12591	0.94103	-0.14078	0.23651	0.74437	-0.13158	0.20733	0.72463	-0.09713	0.14569	1.20190	-0.12051	0.07547	1.11086	-0.22452	0.09795	1.20714	-0.22385	0.16305	1.22341	-0.15269	0.16665	1.18129	-0.16049	0.11872	1.26406	-0.29388	0.08192	1.07424	-0.29308	0.21013	1.21397	-0.28386	0.24122	1.08509	-0.28722	0.11872	1.21397	-0.28386	0.21013	1.08509	-0.28386	0.21013	1.21397	-0.15269	0.14569	1.11086	-0.22452	0.07547	1.20714	-0.22452	0.07547	1.11086	-0.12051	0.14144	0.94573	-0.11392	0.22192	0.73450	-0.11436	0.14144	0.94573	-0.11391	0.16305	1.22341	-0.15260	0.21013	1.21397	-0.28380 
206	2.050	0.15697	0.95033	-0.08706	0.12594	0.94097	-0.14081	0.23649	0.74430	-0.13155	0.20728	0.72454	-0.09713	0.14578	1.20184	-0.12033	0.07604	1.11082	-0.22468	0.09843	1.20712	-0.22384	0.16324	1.22339	-0.15243	0.16691	1.18127	-0.16025	0.11860	1.26374	-0.29423	0.08225	1.07384	-0.29407	0.21006	1.21385	-0.28380	0.24149	1.08504	-0.28726	0.11860	1.21385	-0.28380	0.21006	1.08504	-0.28380	0.21006	1.21385	-0.15243	0.14578	1.11082	-0.22468	0.07604	1.20712	-0.22468	0.07604	1.11082	-0.12033	0.14145	0.94565	-0.11393	0.22189	0.73442	-0.11434	0.14145	0.94565	-0.11393	0.16324	1.22339	-0.15240	0.21006	1.21385	-0.28300 
